<svg xmlns="http://www.w3.org/2000/svg" width="220" height="220" viewBox="0 0 220 220" role="img" aria-label="Loving Homes logo">
  <defs>
    <linearGradient id="roof" x1="0" y1="0" x2="1" y2="1">
      <stop offset="0" stop-color="#0B5F66"/>
      <stop offset="1" stop-color="#1D8D95"/>
    </linearGradient>
    <linearGradient id="dog" x1="0" y1="0" x2="0" y2="1">
      <stop offset="0" stop-color="#F3E9D6"/>
      <stop offset="1" stop-color="#DCC9A8"/>
    </linearGradient>
  </defs>
  <rect width="220" height="220" rx="36" fill="#061D20"/>
  <path d="M35 104L109 44l76 60" fill="none" stroke="url(#roof)" stroke-width="10" stroke-linecap="round" stroke-linejoin="round"/>
  <path d="M54 103v58h112v-58" fill="none" stroke="#0B5F66" stroke-width="10" stroke-linecap="round"/>
  <path d="M90 130c0-16 11-28 27-28 13 0 24 9 27 21 15 2 26 14 26 29 0 17-13 31-31 31H115c-14 0-25-11-25-25 0-6 2-11 6-15-4-4-6-8-6-13z" fill="url(#dog)" stroke="#1D8D95" stroke-width="4"/>
  <circle cx="123" cy="121" r="3.8" fill="#0B5F66"/>
  <path d="M116 133c4 4 12 4 16 0" fill="none" stroke="#0B5F66" stroke-width="3.5" stroke-linecap="round"/>
  <path d="M98 178h24" stroke="#7AB5AF" stroke-width="4" stroke-linecap="round"/>
  <text x="110" y="198" text-anchor="middle" font-size="20" font-family="Poppins, Arial, sans-serif" font-weight="700" fill="#7AB5AF">LOVING HOMES</text>
</svg>
